<svg xmlns="http://www.w3.org/2000/svg" viewBox="0 0 64 64">
  <rect width="64" height="64" rx="12" fill="#07152d" />
  <path d="M24 8c-7 0-12 6-12 14 0 10 8 19 12 19s12-9 12-19c0-8-5-14-12-14Z" fill="#d8b56d" />
  <path d="M40 12c-7 0-12 6-12 14 0 10 8 19 12 19s12-9 12-19c0-8-5-14-12-14Z" fill="#f7ead1" />
  <path d="M24 41c-3 7-2 12 5 15" fill="none" stroke="#d8b56d" stroke-width="3" stroke-linecap="round" />
  <path d="M40 45c2 5 0 9-5 11" fill="none" stroke="#f7ead1" stroke-width="3" stroke-linecap="round" />
  <path d="M20 22c0-4 2-7 5-9" fill="none" stroke="#f7ead1" stroke-width="3" stroke-linecap="round" opacity=".7" />
  <path d="M36 25c0-4 2-7 5-9" fill="none" stroke="#07152d" stroke-width="3" stroke-linecap="round" opacity=".3" />
</svg>
